<?xml version="1.0" encoding="utf-8"?>
<!-- Generator: Adobe Illustrator 23.0.0, SVG Export Plug-In . SVG Version: 6.00 Build 0)  -->
<svg version="1.1" id="Layer_1" xmlns="http://www.w3.org/2000/svg" xmlns:xlink="http://www.w3.org/1999/xlink" x="0px" y="0px"
	 viewBox="0 0 1866.89 885.96" style="enable-background:new 0 0 1866.89 885.96;" xml:space="preserve">
<g>
	<path d="M157.17,525.85c-0.71,23.06-1.39,46.22-2.14,69.36c-0.87,26.83-1.9,53.66-2.6,80.5c-0.15,5.56-2.42,8.05-7.79,8.09
		c-1.84,0.01-3.68,0.18-5.51,0.05c-17.33-1.18-17.59-4.45-17.67-17.12c-0.28-42.72-0.57-85.44-0.89-128.16
		c-0.02-2.93-0.38-5.85-0.53-7.99c-10.73,0-20.78,0.14-30.83-0.06c-5.03-0.1-10.07-0.66-15.07-1.26
		c-5.87-0.71-10.13-4.01-10.77-9.87c-0.63-5.84,2.85-10.31,8.33-12c4.28-1.32,9-1.25,13.54-1.69c9.82-0.95,19.67-1.61,29.44-2.93
		c1.8-0.24,4.65-3.04,4.67-4.68c0.3-25.69,0.21-51.38,0.21-76.66c-9.79-3.19-18.44-5.48-26.69-8.78
		c-43.81-17.54-68.69-50.27-74.21-96.74c-6.77-57.01,3.93-110.61,36.41-158.68c33.88-50.14,82.09-79.05,140.67-90.99
		c41.04-8.37,82.36-8.82,122.25,5.36c62.47,22.22,104.2,64.62,119.05,130.41c7.49,33.21,2.72,66.26-6.71,98.5
		c-15.69,53.66-46.55,97.71-87.61,135.01c-33.46,30.4-71.37,53.61-114.84,70.16c6.46,7.33,12.39,14.11,18.38,20.84
		c46.77,52.62,98.83,99.04,158.9,136.18c33.41,20.65,68.6,36.73,107.58,43.52c51.16,8.91,98.51,0.35,140.88-30.89
		c1.48-1.09,2.97-2.15,4.5-3.16c0.32-0.21,0.84-0.13,2.1-0.29c-2.94,20.57-5.35,41.01-15.52,59.34c-2.01,3.61-6.37,6.6-10.33,8.34
		c-68.71,30.35-136.74,26.4-204.2-4.41c-37.16-16.97-69.15-41.39-99.43-68.34c-48.19-42.89-87.45-93.39-124.2-146
		c-3.45-4.94-6.31-6.02-12.19-4.21C182.33,520.29,169.96,522.75,157.17,525.85z M159.06,495.01c1.83-0.27,3.9-0.31,5.79-0.9
		c18.1-5.68,36.66-10.27,54.16-17.43c57.03-23.36,101.21-61.32,128.56-117.39c15.67-32.12,22.62-66.47,27.06-101.7
		c4.98-39.45-4.31-74.7-28-106.15c-21.41-28.42-48.39-48.89-85.28-50.54c-48.16-2.16-93.84,7.99-136.01,32.15
		c-65.67,37.64-94.18,107.81-81.74,174.4c7,37.5,38.44,67.37,74.42,70.68c0-2.54,0.04-5.03-0.01-7.51
		c-0.93-50.49-1.88-100.99-2.73-151.48c-0.04-2.09,0.23-5.46,1.47-6.11c13.72-7.2,27.4-14.58,41.64-20.62
		c6.94-2.94,9.97,0.61,9.72,8.39c-1.63,50.23-3.23,100.46-4.76,150.7c-0.23,7.61-0.03,15.24-0.03,23.46c5-2.01,9.94-3.75,14.69-5.94
		c23.78-10.94,42.04-28.36,57.43-49.14c4.89-6.6,8.15-6.48,10.27,1.5c2.86,10.77,4.5,21.9,6.05,32.97
		c1.97,14.14-4,25.44-13.92,35.02c-12.45,12.02-27.23,20.23-43.56,25.46c-10.81,3.46-21.98,5.81-33.36,8.75
		c-0.87,22.96-1.75,46.32-2.61,69.68C158.29,493.65,158.64,494.07,159.06,495.01z"/>
	<path d="M791.83,549.6c-6.6,14.3-11.91,28.31-19.32,41.11c-6.59,11.4-15.41,21.53-23.48,32.03c-1.77,2.3-4.43,4-6.9,5.64
		c-16.35,10.88-34.17,5.84-42.27-12c-1.79-3.95-3.06-8.13-4.73-12.63c-1.06,1.18-2.07,2.06-2.79,3.14
		c-26.05,38.82-80.68,35.37-102.61-4.4c-7.51-13.62-11.28-29.31-16.73-44.07c-0.53-1.42-0.83-2.93-1.3-4.63
		c-6.6,11.48-12.47,22.79-19.37,33.45c-10.34,15.98-23.16,29.85-40.11,38.95c-30.17,16.2-63,11.46-83.33-20.41
		c-12.63-19.8-19.08-41.9-20.89-64.84c-3.76-47.55,1.19-94.35,17.66-139.42c6.12-16.75,15.13-31.99,29.4-43.32
		c22.6-17.94,52.48-14.02,69.78,8.91c13.28,17.61,18.67,38.16,21.49,59.45c4.1,30.91,1.62,61.45-8.35,91.03
		c-6.31,18.71-16.33,35.32-32.01,48.04c-10.5,8.51-22.5,13.04-35.77,14.66c-3.38,0.42-6.75,0.98-12.16,1.77
		c5.25,8.04,8.98,15.78,14.55,21.82c8.04,8.72,18.35,10.04,29.68,5.8c16.02-6,27.43-17.3,36.77-30.96
		c13.31-19.46,22.45-40.97,29.03-63.47c1.68-5.74,0.67-12.29,0.78-18.48c0.48-28.83,3.92-57.17,13.87-84.42
		c6.61-18.1,15.52-34.68,30.78-47.25c13.24-10.9,28.37-16.3,45.3-17.71c16.3-1.36,26.78,7.39,35.55,19.43
		c2.24,3.08,4.03,6.5,6.59,10.7c1.09-7.84,1.76-14.64,3.15-21.28c0.37-1.78,3.03-4.48,4.52-4.41c10.57,0.5,21,1.88,29.99,8.36
		c6.17,4.45,8.44,10.38,7.99,17.88c-1.94,32.07-4.17,64.12-5.4,96.22c-1.37,35.78-1.83,71.6-2.54,107.4
		c-0.09,4.56,0.73,9.14,1.05,13.71c0.36,5.12,3.33,5.31,6.43,2.8c3.15-2.54,6.07-5.65,8.25-9.05c12.5-19.47,18.52-41.73,27.13-62.91
		c7.26-17.87,2.79-35.77,3.53-53.64c0.99-23.84,0.3-47.79,2.38-71.52c2.92-33.33,6.79-66.65,11.93-99.71
		c6.94-44.63,15.85-89,35.75-130.03c6.31-13.02,14.05-26.22,24.14-36.36c24.14-24.26,58.17-14.66,68.01,17.92
		c6.07,20.1,6.74,40.82,5.23,61.43c-3.63,49.8-12.53,98.66-29.99,145.62c-10.51,28.26-23.74,55.25-43.27,78.53
		c-6.59,7.86-14.76,14.39-22.14,21.6c-1.38,1.35-3.43,2.99-3.51,4.58c-1.91,38.1-2.89,76.16,8.36,113.29
		c0.66,2.18,1.63,4.28,2.54,6.38c9.56,22.01,32.13,26.29,49.53,9.38c10.08-9.79,17.23-21.64,21.81-34.69
		c8.4-23.96,15.84-48.25,23.81-72.36c2.82-8.52,12.46-10.57,18.19-3.77c1.51,1.79,2.61,5.3,1.92,7.36
		c-11.34,33.81-19.76,68.81-37.44,100.13c-6.34,11.23-14.29,22.12-23.58,31.01c-25.28,24.21-63.06,19.74-83.27-8.84
		c-11.61-16.42-17.29-35.26-21.76-54.56C793.06,555.36,792.51,552.68,791.83,549.6z M615.68,518.29
		c1.13,12.55,1.71,21.71,2.82,30.81c1.98,16.2,5.07,32.16,13.37,46.55c8.85,15.35,26.29,18.37,39.71,6.76
		c13.23-11.44,19.17-27.1,20.85-43.59c2.01-19.8,1.19-39.87,2.05-59.8c1.16-26.8,2.8-53.58,4.12-80.38
		c0.89-18.07-5.01-33.39-19.36-44.84c-8.93-7.12-19.56-7.01-27.14,1.49c-6.15,6.89-11.96,14.74-15.5,23.19
		C620.09,437.85,617.36,479.67,615.68,518.29z M455.02,567.89c12.47,0.7,22.99-2.24,31.83-10.87c11.43-11.16,17.65-25.14,21.2-40.17
		c8.79-37.24,9.5-75,3.71-112.66c-1.58-10.27-5.95-20.84-11.65-29.57c-6.97-10.69-19.02-8.98-24.16,2.68
		c-4.31,9.79-8.55,20.02-10.23,30.47c-5.3,32.97-10.26,66.05-13.6,99.26C450.13,526.98,449.97,547.33,455.02,567.89z M834.22,434.4
		c0.94,0.4,1.88,0.8,2.82,1.19c6.74-9.15,14.46-17.75,20.08-27.54c39.81-69.42,55-145.02,54.6-224.24
		c-0.04-8.74-2.37-17.71-5.07-26.12c-2.55-7.96-8.83-8.76-13.94-2.21c-3.33,4.27-6.03,9.23-8.04,14.27
		c-13.26,33.19-19.15,68.2-24.89,103.22c-5.97,36.39-11.75,72.81-17.54,109.23C839.47,399.59,836.88,417,834.22,434.4z"/>
	<path d="M1692.73,246.24c0-12.66,0.15-24.79-0.03-36.9c-0.38-26.17-0.69-52.35-1.59-78.5c-0.21-6.02,2-9.03,7.23-9.14
		c9.08-0.19,18.44-0.7,27.21,1.15c12.66,2.68,15.69,8.47,15.11,21.28c-1.41,31.18-2.58,62.37-3.84,93.55
		c-0.05,1.34-0.01,2.68-0.01,4.87c8.52-0.54,16.67-0.96,24.8-1.58c15.1-1.16,30.18-2.76,45.29-3.47c4.9-0.23,13.36,0.62,14.12,2.96
		c1.5,4.62-0.17,11.1-2.42,15.94c-5.65,12.16-16,15.22-29.03,14.48c-17.35-0.98-34.79-0.24-53.31-0.24
		c-3.02,108.88-8.02,218.57-4.88,328.36c0.78,0.43,1.55,0.86,2.33,1.29c2.5-1.47,5.84-2.36,7.35-4.53
		c4.94-7.1,10.48-14.19,13.52-22.14c9.63-25.2,18.26-50.78,27.2-76.24c2.32-6.62,9.47-9.4,15.1-5.31c1.21,0.88,2.04,3.65,1.63,5.19
		c-10.47,39.98-21.7,79.73-46.95,113.52c-7.24,9.68-15.19,19.12-28,22.23c-12.15,2.95-21.65-0.38-28.72-10.76
		c-7.05-10.35-9.76-22.1-10.35-34.43c-0.16-3.31-0.02-6.64-0.02-11.33c-6.07,10.37-10.74,19.8-16.79,28.24
		c-5.56,7.75-11.92,15.24-19.14,21.44c-16.2,13.91-36.41,9.02-45.18-10.42c-2.43-5.39-4.19-11.16-5.55-16.92
		c-1.3-5.53-1.67-11.27-2.61-18.06c-1.33,2.19-2.38,3.71-3.23,5.34c-7.51,14.31-16.14,27.73-28.97,38.03
		c-25.56,20.53-60.72,15.95-79.96-10.8c-13.14-18.26-19.19-39.39-23.42-61.1c-9.17-47.02-8.9-94.44-5.77-141.98
		c3.81-57.75,11.35-114.96,25.05-171.24c7.11-29.22,15.98-57.89,31.66-83.85c4.47-7.4,9.63-14.69,15.75-20.72
		c15.38-15.14,40.71-16.54,55.11-3.47c10.21,9.28,13.68,21.99,15.97,35.01c5,28.41,2.41,56.78-1.57,84.99
		c-5.39,38.16-13.16,75.86-27.34,111.87c-10.96,27.82-23.85,54.72-43.77,77.45c-6.32,7.21-13.94,13.26-20.82,19.98
		c-1.52,1.48-3.39,3.54-3.47,5.4c-1.5,35.11-2.27,70.22,6.3,104.72c1.32,5.31,3.27,10.53,5.52,15.52
		c8.35,18.49,26.55,24.16,42.97,12.04c7.86-5.8,15.33-13.92,19.41-22.66c8.76-18.78,15.88-38.43,22.26-58.18
		c2.52-7.81,1.31-16.84,1.77-25.31c1.95-36.2,3.8-72.41,5.88-108.6c0.5-8.69,1.49-17.38,2.83-25.98c0.32-2.05,3.02-5.4,4.52-5.34
		c10.32,0.4,20.56,1.64,29.37,8c6.31,4.55,9.17,10.47,8.72,18.28c-2.28,39.41-5.02,78.8-6.48,118.23
		c-1.18,31.86-0.83,63.77-0.95,95.67c-0.01,2.48,1.65,4.97,2.53,7.45c2.77-1.36,6.75-1.98,8.1-4.2
		c6.62-10.92,13.3-21.93,18.49-33.57c5.38-12.08,10.12-24.66,13.16-37.5c2.34-9.88,1.96-20.48,2.22-30.77
		c1.55-63.11,2.97-126.22,4.32-189.34c0.25-11.67,0.04-23.34,0.04-35.94c-8.63,0-17.89,0-27.04,0c-1.2,6.61-1.77,13.73-3.84,20.38
		c-4.89,15.66-16.65,24.64-30.45,24.19c-8.1-0.27-14.5-4.03-19.63-10.01c-14.32-16.68-15.09-43.75-1.86-61.33
		c13.1-17.4,34.58-17.17,46.39,1.12c3.59,5.56,6.92,7.11,13.21,5.95C1675.77,247.14,1683.64,247.02,1692.73,246.24z M1501.4,434.17
		c0.84,0.34,1.67,0.69,2.51,1.03c1.44-1.74,2.98-3.41,4.3-5.25c6.41-8.93,13.7-17.39,18.97-26.96
		c36.33-65.95,50.74-137.47,51.87-212.02c0.17-11.01-2.44-22.29-5.24-33.06c-2.08-8.02-8.73-9.07-13.83-2.57
		c-3.89,4.95-6.99,10.8-9.24,16.71c-13.26,34.66-19.1,71.1-25.04,107.48c-5.94,36.4-11.79,72.82-17.57,109.24
		C1505.74,403.88,1503.64,419.04,1501.4,434.17z"/>
	<path d="M1361.73,594.89c-7.27,11.09-13.31,21.95-20.9,31.59c-21.71,27.52-50.99,42.93-84.89,49.54
		c-48.44,9.44-93.47,1.93-133.58-28.53c-22.75-17.27-41.73-37.93-57.24-61.86c-26.98-41.61-43.16-87.34-51.02-136.05
		c-12.24-75.88-6.21-150.46,18.04-223.37c15.37-46.2,37.79-88.56,72.22-123.66c42.14-42.95,93.2-66.19,153.57-68.99
		c40.04-1.85,77.12,5.38,108.82,31.79c29.44,24.52,47.59,56.04,57.39,92.61c15.22,56.82,13.55,112.85-11.8,166.55
		c-23.66,50.13-61.57,84.96-115.73,100.41c-6.14,1.75-12.58,2.5-18.92,3.47c-10.65,1.64-19.29-1.19-25.3-10.9
		c-5.66-9.14-12.02-17.84-17.83-26.9c-1.38-2.16-1.77-4.96-2.93-8.4c8.46-0.46,15.93-0.6,23.34-1.3
		c38.04-3.58,68.56-21.87,94.11-49.18c24.63-26.34,41.33-57.37,44.63-93.29c4.52-49.12-1.4-96.97-31.82-138.23
		c-22.4-30.38-54.01-42.99-91.11-42.36c-52.14,0.88-92.56,24.8-124.27,64.85c-30.67,38.74-47.41,83.98-59.04,131.23
		c-15.66,63.56-20.04,128.07-14.3,193.31c3.7,41.99,10.73,83.16,27.75,122.09c12.06,27.59,28.43,52.08,53.3,69.66
		c41.73,29.5,101.81,24.74,142.1-10.42c24.14-21.07,41.19-47.32,55.46-75.53c8.35-16.5,15.8-33.47,24.35-51.72
		c-39,4.3-71.63,20.41-103.57,38.71c-4.02-16.1-2.43-39.08,15.8-45.74c26.38-9.64,53.41-16.37,80.91-21.28
		c13.26-2.37,26.84-3.02,40.29-4.24c2.31-0.21,4.71,0.64,7.64,1.09c-12.02,30.14-19.86,60.54-24.23,91.62
		c-5.36,38.12-10.28,76.39-13.06,114.77c-2.32,31.99-2.2,64.25-1.48,96.34c0.65,28.61,2.41,57.35,13.2,84.51
		c2.06,5.19-0.66,6.7-4.9,5.35c-23.29-7.46-46.96-21.76-46.88-52.14c0.08-28.41,0.32-56.99,3.33-85.19
		c4.38-41,11.3-81.72,17.16-122.56C1360.66,600.27,1361.15,598.05,1361.73,594.89z"/>
</g>
</svg>
